<svg width="249" height="249" viewBox="0 0 249 249" fill="none" xmlns="http://www.w3.org/2000/svg">
<path d="M133.291 218.466L133.48 238.625L127.264 238.683C127.059 238.685 126.7 238.684 126.186 238.679C125.673 238.675 125.182 238.642 124.715 238.581C123.155 238.39 121.847 237.833 120.793 236.91C119.73 235.996 118.926 234.827 118.38 233.404C117.835 231.981 117.554 230.411 117.538 228.694C117.522 226.977 117.773 225.402 118.292 223.969C118.81 222.536 119.593 221.348 120.638 220.404C121.675 219.471 122.972 218.894 124.528 218.674C124.994 218.613 125.489 218.571 126.011 218.548C126.524 218.534 126.879 218.526 127.075 218.524L133.291 218.466ZM130.751 220.869L127.097 220.904C126.743 220.907 126.346 220.92 125.908 220.943C125.469 220.975 125.087 221.021 124.761 221.08C123.662 221.295 122.775 221.766 122.1 222.491C121.425 223.216 120.935 224.116 120.627 225.193C120.32 226.269 120.172 227.428 120.184 228.669C120.196 229.938 120.37 231.108 120.707 232.178C121.034 233.249 121.542 234.135 122.23 234.838C122.918 235.541 123.809 235.985 124.903 236.171C125.23 236.233 125.618 236.272 126.066 236.286C126.514 236.301 126.906 236.306 127.242 236.303L130.896 236.269L130.751 220.869Z" fill="white"/>
<path d="M109.061 217.36L106.047 232.177L103.866 231.733L104.594 228.152L104.856 228.691C104.589 229.113 104.279 229.489 103.927 229.817C103.565 230.143 103.185 230.395 102.788 230.571C102.34 230.804 101.857 230.953 101.339 231.019C100.821 231.085 100.308 231.081 99.799 231.006C99.2885 230.94 98.824 230.812 98.4055 230.622L98.8715 228.331C99.3558 228.573 99.9108 228.724 100.537 228.784C101.162 228.845 101.775 228.736 102.375 228.458C102.919 228.217 103.373 227.88 103.737 227.45C104.092 227.017 104.377 226.527 104.593 225.981C104.807 225.443 104.974 224.882 105.093 224.296L106.605 216.861L109.061 217.36Z" fill="white"/>
<path d="M88.3439 210.93C89.7307 211.509 90.7967 212.323 91.542 213.372C92.2788 214.418 92.6866 215.609 92.7655 216.947C92.8444 218.285 92.5837 219.673 91.9834 221.111C91.3723 222.575 90.5611 223.744 89.5497 224.616C88.5383 225.488 87.4011 226.02 86.1381 226.211C84.8716 226.411 83.5578 226.227 82.1969 225.659C80.8016 225.076 79.7312 224.26 78.9859 223.211C78.2369 222.17 77.8273 220.983 77.757 219.649C77.6745 218.32 77.9334 216.936 78.5337 215.498C79.1412 214.042 79.9482 212.872 80.9545 211.987C81.9573 211.111 83.0938 210.569 84.3639 210.361C85.6305 210.161 86.9572 210.351 88.3439 210.93ZM87.4327 213.113C85.9856 212.509 84.7076 212.542 83.5987 213.212C82.4898 213.882 81.6155 214.984 80.9756 216.517C80.3178 218.093 80.1522 219.496 80.4789 220.724C80.8019 221.961 81.6784 222.878 83.1082 223.475C84.0815 223.881 84.9742 223.996 85.7863 223.819C86.5984 223.642 87.3213 223.231 87.9549 222.585C88.5885 221.939 89.1174 221.108 89.5415 220.092C90.1958 218.524 90.3588 217.116 90.0308 215.866C89.7027 214.617 88.8366 213.699 87.4327 213.113Z" fill="white"/>
<path d="M69.4936 200.394C70.6475 201.219 71.4157 202.198 71.7981 203.332C72.175 204.474 72.2183 205.681 71.9279 206.954C71.6245 208.228 71.0357 209.477 70.1616 210.699C69.2767 211.937 68.2828 212.901 67.1801 213.593C66.0698 214.279 64.919 214.621 63.7277 214.618C62.5288 214.609 61.3524 214.193 60.1984 213.367C59.0596 212.553 58.2839 211.568 57.8711 210.412C57.4454 209.259 57.3625 208.035 57.6226 206.741C57.8826 205.446 58.4524 204.184 59.3319 202.954C60.2114 201.725 61.2215 200.777 62.3622 200.113C63.5029 199.448 64.6933 199.124 65.9334 199.138C67.1605 199.155 68.3472 199.574 69.4936 200.394ZM78.8179 199.317L66.1138 217.081L64.3032 215.787L70.7774 206.733L70.5496 206.57L76.7795 197.859L78.8179 199.317ZM68.4167 202.429C67.6044 201.848 66.7859 201.573 65.9613 201.602C65.1367 201.632 64.3418 201.902 63.5766 202.41C62.806 202.926 62.1085 203.621 61.4842 204.494C60.8652 205.359 60.4389 206.236 60.2051 207.125C59.9638 208.008 59.9698 208.849 60.2233 209.65C60.4691 210.446 61.0096 211.142 61.8447 211.739C62.6418 212.309 63.4435 212.584 64.2496 212.564C65.0503 212.552 65.8295 212.288 66.5871 211.774C67.3393 211.268 68.0411 210.56 68.6926 209.649C69.3332 208.753 69.7807 207.862 70.0351 206.977C70.2765 206.094 70.2753 205.261 70.0316 204.479C69.7825 203.704 69.2442 203.021 68.4167 202.429Z" fill="white"/>
<path d="M41.0413 168.911L32.8936 174.127C31.9434 174.737 31.3651 175.469 31.1589 176.322C30.9398 177.173 31.0899 178.003 31.6094 178.811C31.912 179.283 32.3094 179.66 32.8016 179.943C33.286 180.23 33.8456 180.359 34.4804 180.329C35.1074 180.303 35.7782 180.061 36.4929 179.602L36.7563 180.997C35.8633 181.592 34.9555 181.915 34.0329 181.964C33.0975 182.01 32.2245 181.816 31.4138 181.383C30.6031 180.949 29.9254 180.309 29.3808 179.461C28.5285 178.133 28.2622 176.829 28.5819 175.548C28.8937 174.272 29.729 173.197 31.0877 172.325L39.6948 166.814L41.0413 168.911ZM50.8151 184.131L38.0925 192.301L36.8896 190.428L40.2941 188.242L40.1428 188.006L49.461 182.023L50.8151 184.131ZM45.9206 176.509L37.8554 181.672C36.8816 182.297 36.2812 183.038 36.0542 183.893C35.8194 184.754 35.9692 185.601 36.5038 186.433C37.0334 187.258 37.7448 187.744 38.638 187.891C39.5313 188.039 40.4452 187.812 41.3798 187.212L41.4312 188.743C40.6065 189.273 39.7422 189.55 38.8382 189.576C37.9342 189.602 37.0808 189.396 36.278 188.957C35.4673 188.524 34.7871 187.879 34.2374 187.023C33.6877 186.167 33.3892 185.305 33.342 184.437C33.2947 183.569 33.4979 182.745 33.9513 181.966C34.397 181.192 35.0832 180.507 36.0099 179.912L44.5817 174.424L45.9206 176.509Z" fill="white"/>
<path d="M34.9059 152.452C35.3507 153.867 35.4279 155.203 35.1375 156.458C34.8354 157.708 34.2157 158.803 33.2785 159.743C32.3323 160.686 31.1068 161.394 29.602 161.866C28.0259 162.362 26.5727 162.5 25.2422 162.282C23.9028 162.067 22.7592 161.541 21.8114 160.704C20.8519 159.861 20.1525 158.74 19.7133 157.342C19.2573 155.891 19.2037 154.553 19.5526 153.328C19.8987 152.094 20.6108 151.029 21.689 150.133C22.7645 149.227 24.1682 148.542 25.9002 148.076L26.6555 150.48L25.8007 150.749C24.0372 151.332 22.8282 152.108 22.1738 153.077C21.5105 154.048 21.3943 155.22 21.8251 156.591C22.2867 158.06 23.1097 159.029 24.2942 159.498C25.4786 159.968 26.9523 159.925 28.7154 159.371C30.4161 158.837 31.6136 158.04 32.3079 156.981C33.0023 155.921 33.127 154.683 32.6822 153.268C32.3829 152.315 31.9045 151.555 31.2472 150.989C30.5899 150.423 29.7887 150.068 28.8436 149.925L28.9141 147.393C30.3636 147.554 31.6178 148.089 32.6765 148.999C33.7235 149.903 34.4666 151.054 34.9059 152.452ZM29.635 159.963L27.725 160.563L24.3763 149.905L26.2862 149.305L29.635 159.963Z" fill="white"/>
<path d="M30.5866 123.415C30.5543 124.544 30.3219 125.485 29.8895 126.239C29.4481 126.982 28.8812 127.54 28.1889 127.913C27.4969 128.276 26.7451 128.446 25.9334 128.422C25.1404 128.4 24.459 128.231 23.8891 127.916C23.3101 127.591 22.8373 127.148 22.4705 126.587C22.0944 126.025 21.8054 125.358 21.6034 124.587C21.428 123.863 21.283 123.056 21.1685 122.166C21.0448 121.266 20.9354 120.357 20.8403 119.439C20.7452 118.521 20.653 117.664 20.5637 116.868L21.0559 117.779C19.7132 117.712 18.7119 117.954 18.0519 118.505C17.3921 119.046 17.0425 120.007 17.003 121.388C16.9768 122.302 17.1638 123.111 17.5639 123.813C17.9549 124.506 18.6128 125.006 19.5378 125.312L18.7564 127.657C17.442 127.255 16.4219 126.521 15.6961 125.454C14.9704 124.388 14.6319 123.001 14.6807 121.294C14.72 119.922 15.0009 118.754 15.5234 117.788C16.0368 116.813 16.7941 116.125 17.7953 115.724C18.2679 115.523 18.7803 115.402 19.3323 115.362C19.875 115.322 20.4449 115.31 21.042 115.327L30.3902 115.595L30.3269 117.806L26.7024 117.702L27.0531 117.194C28.259 117.798 29.1597 118.622 29.7555 119.666C30.3514 120.701 30.6285 121.951 30.5866 123.415ZM28.5122 122.978C28.5379 122.082 28.4014 121.303 28.1029 120.641C27.7953 119.97 27.386 119.426 26.8751 119.01C26.3548 118.593 25.7838 118.315 25.1622 118.176C24.6997 118.023 24.1841 117.933 23.6152 117.908C23.0373 117.873 22.5945 117.851 22.2866 117.842L22.6893 116.985C22.778 117.8 22.8625 118.601 22.9427 119.387C23.0229 120.174 23.1136 120.919 23.2148 121.622C23.3068 122.325 23.424 122.958 23.5666 123.523C23.6855 123.937 23.8423 124.329 24.0372 124.699C24.2323 125.059 24.4899 125.356 24.81 125.589C25.1211 125.813 25.5145 125.931 25.9903 125.945C26.4008 125.957 26.7956 125.865 27.1746 125.671C27.554 125.467 27.8665 125.149 28.1123 124.717C28.3584 124.276 28.4917 123.696 28.5122 122.978Z" fill="white"/>
<path d="M36.8971 89.1435C36.769 90.0479 36.5428 90.908 36.2182 91.724C35.9056 92.5342 35.4871 93.2086 34.9629 93.7472C34.4298 94.2827 33.7832 94.6056 33.0231 94.7158C32.3607 94.8008 31.7385 94.7565 31.1565 94.5829C30.5688 94.3974 29.9093 94.1769 29.1779 93.9215L16.331 89.4345L17.1527 87.0818L29.8939 91.5319C30.4754 91.735 30.9748 91.9045 31.392 92.0403C31.8123 92.1673 32.2015 92.1995 32.5595 92.1367C33.2343 92.0164 33.7401 91.6296 34.0771 90.9762C34.4171 90.3139 34.6831 89.4676 34.8749 88.4372L36.8971 89.1435ZM21.228 94.3925L19.2851 93.7139L22.6227 84.1579L24.5656 84.8365L21.228 94.3925Z" fill="white"/>
<path d="M43.7467 76.4711C42.989 77.7472 42.0458 78.6959 40.9169 79.3173C39.7849 79.9259 38.556 80.1949 37.2303 80.1241C35.8966 80.0486 34.5516 79.6082 33.1954 78.8028C31.7749 77.9594 30.7019 76.9695 29.9764 75.8331C29.2429 74.692 28.8716 73.4892 28.8626 72.2247C28.8504 70.9474 29.2183 69.6788 29.9665 68.4189C30.7432 67.1108 31.7041 66.178 32.8493 65.6205C33.9992 65.055 35.2677 64.8747 36.6548 65.0796C38.0467 65.2766 39.494 65.8646 40.9967 66.8437L39.7101 69.0105L38.9396 68.553C37.3283 67.6288 35.9436 67.2462 34.7854 67.4052C33.6193 67.5594 32.6692 68.2544 31.9354 69.4903C31.1491 70.8145 30.9764 72.0742 31.4173 73.2695C31.8581 74.4647 32.8731 75.5341 34.462 76.4777C35.9949 77.3878 37.3875 77.748 38.6399 77.5582C39.8924 77.3684 40.8975 76.6355 41.6551 75.3595C42.165 74.5008 42.4116 73.6377 42.3948 72.7702C42.378 71.9027 42.1077 71.0692 41.5838 70.2697L43.5163 68.6329C44.3637 69.8199 44.8018 71.1113 44.8306 72.5069C44.8561 73.8898 44.4948 75.2112 43.7467 76.4711ZM34.6351 77.5573L32.9137 76.5352L38.6177 66.929L40.3391 67.9512L34.6351 77.5573Z" fill="white"/>
<path d="M50.5492 65.3474L48.9555 55.8963L39.6361 54.8815L41.6725 52.7223L48.549 53.5115L47.3303 46.7235L49.3667 44.5644L50.9247 53.8085L60.4623 54.8367L58.4163 57.0061L51.36 56.1627L52.5952 63.1781L50.5492 65.3474Z" fill="white"/>
<path d="M73.2264 45.1379C72.6002 45.8028 71.9192 46.3749 71.1834 46.8543C70.4607 47.3358 69.7299 47.6453 68.991 47.7829C68.2466 47.9129 67.5322 47.8036 66.8477 47.4551C66.2575 47.1425 65.7748 46.7474 65.3996 46.2699C65.0265 45.7794 64.6149 45.2189 64.1648 44.5883L56.2587 33.5127L58.2869 32.0649L66.128 43.0494C66.4859 43.5507 66.7961 43.9772 67.0586 44.3288C67.3286 44.675 67.628 44.9257 67.9567 45.081C68.5772 45.3719 69.2136 45.3477 69.8657 45.0083C70.5255 44.6635 71.2309 44.1256 71.9819 43.3945L73.2264 45.1379ZM57.3991 40.3875L56.2034 38.7124L64.4418 32.8316L65.6375 34.5066L57.3991 40.3875Z" fill="white"/>
<path d="M88.1007 25.9359L85.936 25.2675L87.1112 21.984L83.6146 22.1384L83.5829 19.8718L87.0766 19.9698L85.8256 16.6837L87.9728 15.9532L88.9852 19.3206L91.6944 17.1124L93.0515 18.9281L90.1861 20.938L93.1065 22.8282L91.7985 24.678L89.0274 22.5744L88.1007 25.9359Z" fill="#FF0000"/>
<path d="M117.322 30.4234L116.083 10.3014L118.57 10.1483L119.809 30.2702L117.322 30.4234Z" fill="white"/>
<path d="M134.313 31.1151C132.913 30.9566 131.751 30.4728 130.829 29.6639C129.907 28.8457 129.24 27.8074 128.828 26.5491C128.426 25.2919 128.31 23.9121 128.48 22.4097C128.65 20.9073 129.071 19.5883 129.745 18.4528C130.427 17.3184 131.308 16.4648 132.388 15.8919C133.468 15.3097 134.704 15.0973 136.095 15.2548C137.514 15.4154 138.667 15.8935 139.553 16.6889C140.44 17.4844 141.062 18.5081 141.418 19.7601C141.783 21.0132 141.88 22.3955 141.709 23.9072C141.54 25.4003 141.137 26.7214 140.5 27.8703C139.873 29.011 139.037 29.8792 137.993 30.4749C136.95 31.0613 135.723 31.2747 134.313 31.1151ZM134.876 28.8822C135.887 28.9966 136.744 28.8495 137.448 28.4407C138.153 28.0227 138.707 27.4044 139.109 26.5858C139.522 25.759 139.791 24.7984 139.915 23.7041C140.041 22.5912 139.994 21.5949 139.774 20.7153C139.564 19.8274 139.166 19.1108 138.58 18.5654C137.995 18.0107 137.211 17.6777 136.228 17.5664C135.207 17.4509 134.335 17.6058 133.611 18.031C132.896 18.4573 132.327 19.0787 131.906 19.8951C131.494 20.7126 131.228 21.65 131.109 22.7073C130.988 23.7738 131.041 24.7567 131.268 25.6559C131.496 26.5459 131.906 27.278 132.499 27.8523C133.101 28.4276 133.893 28.7709 134.876 28.8822ZM139.063 31.23L140.315 20.1706L140.036 20.1391L141.052 11.1665L143.542 11.4483L141.275 31.4804L139.063 31.23Z" fill="white"/>
<path d="M159.853 37.0994L167.86 18.1411L170.156 19.1107L162.149 38.069L159.853 37.0994Z" fill="white"/>
<path d="M175.186 45.5533C173.924 44.7375 173.019 43.7472 172.472 42.5822C171.933 41.4222 171.743 40.1771 171.903 38.8467C172.062 37.5164 172.565 36.1967 173.411 34.8877C174.273 33.5552 175.279 32.5494 176.429 31.8703C177.579 31.1913 178.792 30.8699 180.069 30.9062C181.351 30.9346 182.611 31.3491 183.85 32.1497C185.12 32.9705 186.028 33.9634 186.575 35.1284C187.128 36.2855 187.32 37.5268 187.152 38.852C186.998 40.1746 186.497 41.4903 185.651 42.7993C184.795 44.124 183.793 45.1323 182.646 45.8243C181.503 46.5084 180.289 46.8401 179.002 46.8195C177.72 46.7911 176.448 46.369 175.186 45.5533ZM176.47 43.5662C177.787 44.4174 179.051 44.6118 180.261 44.1494C181.471 43.687 182.527 42.7581 183.429 41.3629C184.356 39.9285 184.768 38.5777 184.665 37.3107C184.566 36.0358 183.867 34.9778 182.565 34.1367C181.68 33.5642 180.821 33.2928 179.991 33.3227C179.16 33.3526 178.376 33.6291 177.638 34.1521C176.9 34.6752 176.232 35.3992 175.634 36.3241C174.712 37.7507 174.301 39.1079 174.402 40.3957C174.503 41.6835 175.193 42.7404 176.47 43.5662Z" fill="white"/>
<path d="M190.186 56.9667L197.05 42.4195L198.825 44.2079L193.339 55.6318L204.793 50.2187L206.578 52.017L191.981 58.775L190.186 56.9667Z" fill="white"/>
<path d="M203.489 74.0362C202.693 72.7841 202.272 71.5142 202.227 70.2264C202.195 68.9414 202.51 67.7235 203.172 66.5725C203.841 65.4166 204.841 64.4153 206.172 63.5686C207.566 62.6819 208.934 62.1714 210.275 62.037C211.625 61.8976 212.865 62.1093 213.998 62.6721C215.143 63.2378 216.109 64.1388 216.895 65.3752C217.712 66.6588 218.111 67.9374 218.091 69.2108C218.077 70.4922 217.665 71.7054 216.856 72.8506C216.052 74.0037 214.874 75.0297 213.322 75.9286L211.969 73.8023L212.725 73.3214C214.277 72.3009 215.244 71.238 215.625 70.1328C216.013 69.0226 215.822 67.8611 215.051 66.6484C214.224 65.349 213.178 64.6262 211.912 64.48C210.647 64.3338 209.234 64.7567 207.675 65.7486C206.171 66.7054 205.221 67.7855 204.825 68.9887C204.429 70.192 204.629 71.4197 205.426 72.6718C205.962 73.5144 206.621 74.124 207.402 74.5007C208.184 74.8773 209.05 75.0124 210 74.9059L210.588 77.3691C209.146 77.5894 207.796 77.3974 206.537 76.793C205.292 76.1915 204.276 75.2726 203.489 74.0362ZM206.634 65.4156L208.323 64.341L214.319 73.7673L212.63 74.8418L206.634 65.4156Z" fill="white"/>
<path d="M216.638 104.946C216.242 104.123 215.951 103.282 215.767 102.424C215.576 101.577 215.548 100.783 215.684 100.044C215.829 99.3026 216.187 98.6746 216.757 98.1601C217.26 97.7209 217.802 97.4115 218.382 97.2319C218.973 97.059 219.644 96.8753 220.394 96.6806L233.565 93.2606L234.191 95.6726L221.128 99.0644C220.532 99.2192 220.023 99.3563 219.601 99.4756C219.181 99.6039 218.84 99.7937 218.577 100.045C218.083 100.52 217.878 101.123 217.962 101.854C218.048 102.593 218.298 103.444 218.712 104.407L216.638 104.946ZM226.737 91.8658L228.729 91.3485L231.273 101.146L229.281 101.663L226.737 91.8658Z" fill="white"/>
<path d="M217.992 119.175C217.911 117.674 218.18 116.36 218.802 115.233C219.423 114.115 220.319 113.23 221.49 112.577C222.66 111.925 224.023 111.556 225.58 111.472C227.164 111.386 228.569 111.609 229.794 112.141C231.019 112.672 231.992 113.465 232.713 114.52C233.444 115.574 233.849 116.837 233.929 118.31C234.01 119.819 233.741 121.138 233.12 122.265C232.508 123.392 231.617 124.277 230.446 124.92C229.285 125.572 227.926 125.94 226.37 126.025C224.795 126.11 223.39 125.892 222.156 125.37C220.931 124.848 219.949 124.06 219.209 123.006C218.479 121.952 218.073 120.675 217.992 119.175ZM220.354 119.046C220.439 120.612 221.025 121.749 222.11 122.456C223.195 123.164 224.567 123.473 226.226 123.382C227.932 123.29 229.267 122.83 230.231 122.001C231.205 121.173 231.65 119.985 231.566 118.438C231.509 117.385 231.224 116.531 230.712 115.876C230.2 115.222 229.515 114.75 228.658 114.46C227.801 114.17 226.823 114.054 225.723 114.114C224.027 114.206 222.687 114.671 221.705 115.51C220.722 116.348 220.272 117.527 220.354 119.046Z" fill="white"/>
<path d="M214.612 149.87C215.099 148.135 215.876 146.817 216.944 145.915C218.018 145.024 219.273 144.644 220.71 144.776L220.412 147.339C219.566 147.315 218.809 147.592 218.143 148.171C217.485 148.752 217.009 149.568 216.714 150.619C216.434 151.617 216.421 152.457 216.675 153.139C216.93 153.821 217.412 154.262 218.122 154.461C218.535 154.577 218.894 154.576 219.199 154.458C219.512 154.342 219.865 154.02 220.256 153.49C220.645 152.969 221.163 152.159 221.81 151.061C222.512 149.872 223.151 148.961 223.726 148.327C224.302 147.694 224.876 147.288 225.449 147.11C226.023 146.932 226.656 146.94 227.348 147.134C228.201 147.373 228.882 147.817 229.388 148.463C229.904 149.112 230.22 149.903 230.336 150.837C230.449 151.78 230.349 152.809 230.037 153.923C229.726 155.029 229.274 155.968 228.679 156.741C228.083 157.514 227.388 158.075 226.592 158.424C225.803 158.784 224.967 158.894 224.086 158.753L224.33 156.175C225.144 156.277 225.866 156.073 226.494 155.561C227.12 155.058 227.587 154.312 227.894 153.322C228.194 152.388 228.244 151.573 228.042 150.877C227.837 150.189 227.421 149.757 226.792 149.581C226.441 149.482 226.11 149.506 225.798 149.651C225.483 149.805 225.13 150.147 224.739 150.677C224.345 151.216 223.845 152.015 223.237 153.076C222.552 154.27 221.914 155.181 221.32 155.81C220.734 156.45 220.136 156.854 219.526 157.022C218.926 157.193 218.248 157.172 217.493 156.96C216.091 156.567 215.131 155.74 214.612 154.479C214.103 153.221 214.103 151.685 214.612 149.87Z" fill="white"/>
<path d="M208.186 166.426C208.711 165.427 209.334 164.683 210.053 164.197C210.777 163.723 211.531 163.471 212.317 163.441C213.098 163.419 213.848 163.597 214.567 163.974C215.269 164.343 215.807 164.795 216.18 165.328C216.557 165.874 216.787 166.48 216.87 167.146C216.961 167.815 216.928 168.541 216.77 169.323C216.609 170.05 216.385 170.839 216.096 171.689C215.812 172.552 215.51 173.416 215.192 174.282C214.874 175.148 214.58 175.959 214.311 176.713L214.269 175.679C215.445 176.329 216.451 176.552 217.286 176.347C218.117 176.151 218.853 175.441 219.496 174.218C219.921 173.409 220.109 172.6 220.058 171.794C220.011 171 219.64 170.262 218.944 169.58L220.677 167.817C221.68 168.756 222.274 169.864 222.457 171.141C222.64 172.418 222.334 173.812 221.54 175.324C220.902 176.539 220.136 177.465 219.242 178.102C218.353 178.752 217.37 179.037 216.294 178.957C215.781 178.93 215.268 178.813 214.755 178.607C214.249 178.405 213.732 178.165 213.204 177.887L204.925 173.537L205.953 171.579L209.163 173.266L208.625 173.568C207.807 172.495 207.361 171.359 207.285 170.159C207.204 168.968 207.505 167.723 208.186 166.426ZM209.857 167.731C209.44 168.524 209.22 169.284 209.198 170.01C209.179 170.748 209.307 171.417 209.583 172.015C209.867 172.618 210.258 173.118 210.755 173.517C211.103 173.858 211.527 174.165 212.027 174.438C212.53 174.723 212.918 174.938 213.191 175.081L212.453 175.674C212.731 174.903 213.007 174.146 213.281 173.405C213.555 172.663 213.801 171.954 214.019 171.278C214.245 170.606 214.419 169.985 214.539 169.416C214.614 168.992 214.645 168.57 214.633 168.153C214.616 167.743 214.515 167.363 214.33 167.013C214.149 166.676 213.848 166.396 213.427 166.175C213.063 165.984 212.668 165.892 212.242 165.9C211.812 165.917 211.391 166.065 210.981 166.345C210.566 166.633 210.191 167.095 209.857 167.731Z" fill="white"/>
<path d="M193.861 177.618L198.066 184.974L196.238 183.493L212.922 188.883L211.238 190.888L197.906 186.449L198.482 185.763L205.356 197.886L203.725 199.826L192.303 179.472L193.861 177.618Z" fill="white"/>
<path d="M178.413 201.914L188.49 219.374L186.332 220.62L181.888 212.92L172.697 218.225L177.141 225.925L174.983 227.17L164.905 209.71L167.064 208.464L171.515 216.176L180.706 210.871L176.255 203.16L178.413 201.914Z" fill="white"/>
<path d="M162.256 229.742L163.1 232.175L160.746 232.992L159.901 230.558L162.256 229.742ZM156.424 212.93L161.379 227.215L159.025 228.032L154.07 213.747L156.424 212.93Z" fill="white"/>
</svg>
